<?xml version="1.0" encoding="UTF-8"?>
<!DOCTYPE svg PUBLIC "-//W3C//DTD SVG 1.0//EN" "http://www.w3.org/TR/2001/REC-SVG-20010904/DTD/svg10.dtd">
<!-- Creator: CorelDRAW 2021 (64 Bit) -->
<svg xmlns="http://www.w3.org/2000/svg" xml:space="preserve" width="22mm" height="32mm" version="1.0" style="shape-rendering:geometricPrecision; text-rendering:geometricPrecision; image-rendering:optimizeQuality; fill-rule:evenodd; clip-rule:evenodd"
viewBox="0 0 2200 3200"
 xmlns:xlink="http://www.w3.org/1999/xlink"
 xmlns:xodm="http://www.corel.com/coreldraw/odm/2003">
 <defs>
  <style type="text/css">
   <![CDATA[
    .str0 {stroke:#FFF212;stroke-width:20;stroke-miterlimit:22.9256;stroke-opacity:0.600000}
    .str1 {stroke:#373435;stroke-width:20;stroke-miterlimit:22.9256}
    .str3 {stroke:#373435;stroke-width:10;stroke-miterlimit:22.9256}
    .str2 {stroke:#373435;stroke-width:10;stroke-miterlimit:57.2987}
    .fil3 {fill:#FEFEFE;fill-rule:nonzero}
    .fil2 {fill:#BDBFC1;fill-rule:nonzero}
    .fil6 {fill:#F58634;fill-rule:nonzero}
    .fil5 {fill:#00AFEF;fill-rule:nonzero}
    .fil7 {fill:#3E4095;fill-rule:nonzero}
    .fil4 {fill:#A6A6A6;fill-rule:nonzero}
    .fil0 {fill:#FFF212;fill-rule:nonzero;fill-opacity:0.600000}
    .fil1 {fill:#F58634;fill-rule:nonzero;fill-opacity:0.600000}
   ]]>
  </style>
 </defs>
 <g id="Camada_x0020_1">
  <metadata id="CorelCorpID_0Corel-Layer"/>
  <path class="fil0 str0" d="M789.98 2693.19c-15.6,313.54 160.23,340.26 260.2,494.33 0,0 311.12,-131.07 317.5,-480.93l-577.7 -13.4z"/>
  <path class="fil1" d="M871.46 2699.14c-10.98,220.64 112.75,239.45 183.11,347.87 0,0 218.94,-92.24 223.43,-338.44l-406.54 -9.43z"/>
  <polygon class="fil2 str1" points="1390,2697.85 763.1,2688.4 737.8,2494.64 1423.59,2504.96 "/>
  <path class="fil3 str1" d="M1575.74 2509.78l-907.14 -14.14c0,0 -329.91,-395 -273.89,-1039.86 -21.5,-485.37 679.16,-1542.95 750.96,-1344.73 64.53,-182.27 706.3,869.09 662.34,1365.93 28.53,646.5 -232.27,1032.8 -232.27,1032.8z"/>
  <path class="fil4" d="M1562.14 1615.04c-1.86,87.83 -41.07,172.43 -110.65,238.45 -162.12,153.82 -443.14,168.89 -627.54,33.64 -184.39,-135.25 -202.45,-369.68 -40.33,-523.5 86.32,-81.9 211.55,-127.95 342.22,-125.94 105.15,1.64 206.29,34.38 285.28,92.32 98.03,71.91 153.23,176.15 151,285.01l0.02 0.02z"/>
  <path class="fil5 str1" d="M1434.39 1594.43c-1.22,60.98 -28.44,119.77 -76.74,165.6 -112.45,106.68 -307.35,117.13 -435.23,23.33 -127.89,-93.8 -140.42,-256.39 -27.97,-363.08 59.81,-56.75 146.64,-88.71 237.18,-87.33 72.97,1.12 143.22,23.79 198.05,64 67.91,49.81 106.21,122.07 104.71,197.46l0 0.02z"/>
  <path class="fil6 str1" d="M1490.02 494.11l-737.48 5.07c135.91,-285.66 300.65,-487.19 369.91,-486.29 69.26,0.88 244,191.56 367.57,481.22z"/>
  <path class="fil3 str2" d="M949.98 415.04c0,7.01 -3.06,13.78 -8.61,19.04 -12.6,11.96 -34.44,13.13 -48.77,2.62 -7.8,-5.73 -12.11,-14.08 -11.71,-22.74 0.3,-6.63 3.33,-12.97 8.58,-17.95 12.6,-11.95 34.44,-13.12 48.77,-2.61 7.46,5.47 11.74,13.36 11.74,21.64l0 0z"/>
  <path class="fil3 str2" d="M1169.56 418.32c-0.3,6.63 -3.33,12.97 -8.58,17.95 -12.6,11.96 -34.44,13.13 -48.77,2.62 -14.34,-10.51 -15.74,-28.73 -3.14,-40.69 6.56,-6.22 16.03,-9.8 25.96,-9.79 8.41,-0.04 16.56,2.51 22.88,7.14 7.81,5.73 12.09,14.11 11.65,22.77l0 0z"/>
  <path class="fil3 str2" d="M1389.37 421.59c-0.27,6.66 -3.31,13.05 -8.58,18.05 -12.6,11.96 -34.44,13.13 -48.78,2.62 -14.33,-10.51 -15.73,-28.73 -3.13,-40.69 6.54,-6.2 15.96,-9.77 25.86,-9.79 8.43,-0.02 16.58,2.53 22.91,7.18 7.77,5.7 12.07,14.01 11.72,22.63z"/>
  <path class="fil4 str3" d="M808.2 2578.53c-0.21,12.69 -2.26,24.84 -5.81,34.38 -8.53,22.9 -23.32,25.14 -33.02,5.01 -5.05,-10.49 -7.95,-25.61 -7.95,-41.47 0,-13.43 2.07,-26.4 5.83,-36.48 8.53,-22.91 23.32,-25.15 33.02,-5.01 5.28,10.96 8.2,26.97 7.93,43.57l0 0z"/>
  <path class="fil4 str3" d="M957.31 2583.99c-0.19,12.76 -2.24,25 -5.82,34.59 -8.53,22.9 -23.31,25.15 -33.01,5.01 -9.71,-20.14 -10.66,-55.05 -2.13,-77.95 4.43,-11.89 10.81,-18.72 17.51,-18.76 5.71,-0.04 11.23,4.85 15.51,13.75 5.26,10.92 8.17,26.84 7.94,43.36l0 0z"/>
  <path class="fil4 str3" d="M1106.21 2590.8c-0.1,13.06 -2.16,25.63 -5.82,35.45 -8.53,22.91 -23.32,25.15 -33.02,5.01 -9.7,-20.14 -10.65,-55.04 -2.12,-77.95 4.52,-12.15 11.08,-19.01 17.93,-18.75 5.56,0.2 10.91,5.08 15.09,13.74 5.16,10.72 8.07,26.27 7.94,42.5l0 0z"/>
  <path class="fil4 str3" d="M1254.7 2596.73c-0.19,12.76 -2.24,25 -5.81,34.59 -8.54,22.9 -23.32,25.15 -33.02,5.01 -9.71,-20.14 -10.66,-55.04 -2.13,-77.95 4.43,-11.88 10.81,-18.72 17.51,-18.76 5.71,-0.04 11.23,4.86 15.51,13.75 5.26,10.92 8.18,26.84 7.94,43.36l0 0z"/>
  <path class="fil4 str3" d="M1403.35 2603.02c-0.2,12.69 -2.26,24.85 -5.81,34.39 -8.53,22.9 -23.31,25.14 -33.02,5.01 -9.7,-20.14 -10.65,-55.05 -2.12,-77.95 4.44,-11.93 10.85,-18.77 17.58,-18.77 5.69,-0.06 11.2,4.81 15.48,13.69 5.29,10.98 8.19,27.02 7.89,43.62l0 0.01z"/>
  <path class="fil7 str1" d="M403.57 1716.99c-8.86,0.72 -178.12,127.64 -336.9,273.75 -42.89,39.49 -29.61,228.44 -25.63,290.77 21.97,346.38 348.85,648.34 382.99,623.45 41.8,-30.49 -62.08,-238.36 -5.41,-491.57 20.14,-89.75 146.4,-179.02 146.4,-179.02l-161.45 -517.38z"/>
  <path class="fil7 str1" d="M1795.1 1691.46c8.86,0.73 178.12,127.65 336.9,273.75 42.89,39.49 29.61,228.45 25.63,290.78 -21.97,346.38 -348.84,648.34 -382.99,623.44 -41.79,-30.49 62.08,-238.35 5.41,-491.56 -20.14,-89.76 -146.4,-179.03 -146.4,-179.03l161.45 -517.38z"/>
 </g>
</svg>
